<?xml version="1.0" encoding="UTF-8" standalone="no"?>
<!DOCTYPE svg PUBLIC "-//W3C//DTD SVG 1.1//EN"
 "http://www.w3.org/Graphics/SVG/1.1/DTD/svg11.dtd">
<!-- Generated by graphviz version 14.1.5 (0)
 -->
<!-- Title: Epidemiology Pages: 1 -->
<svg width="1633pt" height="2348pt"
 viewBox="0.00 0.00 1633.00 2348.00" xmlns="http://www.w3.org/2000/svg" xmlns:xlink="http://www.w3.org/1999/xlink">
<g id="graph0" class="graph" transform="scale(1 1) rotate(0) translate(4 2344)">
<title>Epidemiology</title>
<polygon fill="white" stroke="none" points="-4,4 -4,-2344 1628.7,-2344 1628.7,4 -4,4"/>
<!-- 30 -->
<g id="node1" class="node">
<title>30</title>
<ellipse fill="red" stroke="lightgrey" cx="94.35" cy="-162" rx="94.35" ry="18"/>
<text xml:space="preserve" text-anchor="middle" x="94.35" y="-157.32" font-family="Helvetica,sans-Serif" font-size="14.00">Node 30 (Step 1)</text>
</g>
<!-- 31 -->
<g id="node62" class="node">
<title>31</title>
<ellipse fill="lightgrey" stroke="lightgrey" cx="58.35" cy="-90" rx="27" ry="18"/>
<text xml:space="preserve" text-anchor="middle" x="58.35" y="-85.33" font-family="Helvetica,sans-Serif" font-size="14.00">31</text>
</g>
<!-- 30&#45;&#45;31 -->
<g id="edge61" class="edge">
<title>30&#45;&#45;31</title>
<path fill="none" stroke="black" d="M85.45,-143.7C79.7,-132.52 72.28,-118.08 66.65,-107.14"/>
</g>
<!-- 62 -->
<g id="node63" class="node">
<title>62</title>
<ellipse fill="lightgrey" stroke="lightgrey" cx="130.35" cy="-90" rx="27" ry="18"/>
<text xml:space="preserve" text-anchor="middle" x="130.35" y="-85.33" font-family="Helvetica,sans-Serif" font-size="14.00">62</text>
</g>
<!-- 30&#45;&#45;62 -->
<g id="edge62" class="edge">
<title>30&#45;&#45;62</title>
<path fill="none" stroke="black" d="M103.25,-143.7C108.99,-132.52 116.42,-118.08 122.05,-107.14"/>
</g>
<!-- 24 -->
<g id="node2" class="node">
<title>24</title>
<ellipse fill="red" stroke="lightgrey" cx="343.35" cy="-594" rx="94.35" ry="18"/>
<text xml:space="preserve" text-anchor="middle" x="343.35" y="-589.33" font-family="Helvetica,sans-Serif" font-size="14.00">Node 24 (Step 2)</text>
</g>
<!-- 25 -->
<g id="node51" class="node">
<title>25</title>
<ellipse fill="lightgrey" stroke="lightgrey" cx="307.35" cy="-522" rx="27" ry="18"/>
<text xml:space="preserve" text-anchor="middle" x="307.35" y="-517.33" font-family="Helvetica,sans-Serif" font-size="14.00">25</text>
</g>
<!-- 24&#45;&#45;25 -->
<g id="edge49" class="edge">
<title>24&#45;&#45;25</title>
<path fill="none" stroke="black" d="M334.45,-575.7C328.7,-564.52 321.28,-550.08 315.65,-539.14"/>
</g>
<!-- 56 -->
<g id="node52" class="node">
<title>56</title>
<ellipse fill="lightgrey" stroke="lightgrey" cx="379.35" cy="-522" rx="27" ry="18"/>
<text xml:space="preserve" text-anchor="middle" x="379.35" y="-517.33" font-family="Helvetica,sans-Serif" font-size="14.00">56</text>
</g>
<!-- 24&#45;&#45;56 -->
<g id="edge50" class="edge">
<title>24&#45;&#45;56</title>
<path fill="none" stroke="black" d="M352.25,-575.7C357.99,-564.52 365.42,-550.08 371.05,-539.14"/>
</g>
<!-- 17 -->
<g id="node3" class="node">
<title>17</title>
<ellipse fill="red" stroke="lightgrey" cx="628.35" cy="-1098" rx="94.35" ry="18"/>
<text xml:space="preserve" text-anchor="middle" x="628.35" y="-1093.33" font-family="Helvetica,sans-Serif" font-size="14.00">Node 17 (Step 3)</text>
</g>
<!-- 18 -->
<g id="node38" class="node">
<title>18</title>
<ellipse fill="lightgrey" stroke="lightgrey" cx="592.35" cy="-1026" rx="27" ry="18"/>
<text xml:space="preserve" text-anchor="middle" x="592.35" y="-1021.33" font-family="Helvetica,sans-Serif" font-size="14.00">18</text>
</g>
<!-- 17&#45;&#45;18 -->
<g id="edge35" class="edge">
<title>17&#45;&#45;18</title>
<path fill="none" stroke="black" d="M619.45,-1079.7C613.7,-1068.52 606.28,-1054.08 600.65,-1043.14"/>
</g>
<!-- 49 -->
<g id="node39" class="node">
<title>49</title>
<ellipse fill="lightgrey" stroke="lightgrey" cx="664.35" cy="-1026" rx="27" ry="18"/>
<text xml:space="preserve" text-anchor="middle" x="664.35" y="-1021.33" font-family="Helvetica,sans-Serif" font-size="14.00">49</text>
</g>
<!-- 17&#45;&#45;49 -->
<g id="edge36" class="edge">
<title>17&#45;&#45;49</title>
<path fill="none" stroke="black" d="M637.25,-1079.7C642.99,-1068.52 650.42,-1054.08 656.05,-1043.14"/>
</g>
<!-- 11 -->
<g id="node4" class="node">
<title>11</title>
<ellipse fill="red" stroke="lightgrey" cx="877.35" cy="-1530" rx="94.35" ry="18"/>
<text xml:space="preserve" text-anchor="middle" x="877.35" y="-1525.33" font-family="Helvetica,sans-Serif" font-size="14.00">Node 11 (Step 4)</text>
</g>
<!-- 12 -->
<g id="node27" class="node">
<title>12</title>
<ellipse fill="lightgrey" stroke="lightgrey" cx="841.35" cy="-1458" rx="27" ry="18"/>
<text xml:space="preserve" text-anchor="middle" x="841.35" y="-1453.33" font-family="Helvetica,sans-Serif" font-size="14.00">12</text>
</g>
<!-- 11&#45;&#45;12 -->
<g id="edge23" class="edge">
<title>11&#45;&#45;12</title>
<path fill="none" stroke="black" d="M868.45,-1511.7C862.7,-1500.52 855.28,-1486.08 849.65,-1475.14"/>
</g>
<!-- 43 -->
<g id="node28" class="node">
<title>43</title>
<ellipse fill="lightgrey" stroke="lightgrey" cx="913.35" cy="-1458" rx="27" ry="18"/>
<text xml:space="preserve" text-anchor="middle" x="913.35" y="-1453.33" font-family="Helvetica,sans-Serif" font-size="14.00">43</text>
</g>
<!-- 11&#45;&#45;43 -->
<g id="edge24" class="edge">
<title>11&#45;&#45;43</title>
<path fill="none" stroke="black" d="M886.25,-1511.7C891.99,-1500.52 899.42,-1486.08 905.05,-1475.14"/>
</g>
<!-- 7 -->
<g id="node5" class="node">
<title>7</title>
<ellipse fill="red" stroke="lightgrey" cx="1054.35" cy="-1818" rx="88.04" ry="18"/>
<text xml:space="preserve" text-anchor="middle" x="1054.35" y="-1813.33" font-family="Helvetica,sans-Serif" font-size="14.00">Node 7 (Step 5)</text>
</g>
<!-- 8 -->
<g id="node20" class="node">
<title>8</title>
<ellipse fill="lightgrey" stroke="lightgrey" cx="1018.35" cy="-1746" rx="27" ry="18"/>
<text xml:space="preserve" text-anchor="middle" x="1018.35" y="-1741.33" font-family="Helvetica,sans-Serif" font-size="14.00">8</text>
</g>
<!-- 7&#45;&#45;8 -->
<g id="edge15" class="edge">
<title>7&#45;&#45;8</title>
<path fill="none" stroke="black" d="M1045.45,-1799.7C1039.7,-1788.52 1032.28,-1774.08 1026.65,-1763.14"/>
</g>
<!-- 39 -->
<g id="node21" class="node">
<title>39</title>
<ellipse fill="lightgrey" stroke="lightgrey" cx="1090.35" cy="-1746" rx="27" ry="18"/>
<text xml:space="preserve" text-anchor="middle" x="1090.35" y="-1741.33" font-family="Helvetica,sans-Serif" font-size="14.00">39</text>
</g>
<!-- 7&#45;&#45;39 -->
<g id="edge16" class="edge">
<title>7&#45;&#45;39</title>
<path fill="none" stroke="black" d="M1063.25,-1799.7C1068.99,-1788.52 1076.42,-1774.08 1082.05,-1763.14"/>
</g>
<!-- 3 -->
<g id="node6" class="node">
<title>3</title>
<ellipse fill="red" stroke="lightgrey" cx="1228.35" cy="-2106" rx="88.04" ry="18"/>
<text xml:space="preserve" text-anchor="middle" x="1228.35" y="-2101.32" font-family="Helvetica,sans-Serif" font-size="14.00">Node 3 (Step 6)</text>
</g>
<!-- 4 -->
<g id="node13" class="node">
<title>4</title>
<ellipse fill="lightgrey" stroke="lightgrey" cx="1192.35" cy="-2034" rx="27" ry="18"/>
<text xml:space="preserve" text-anchor="middle" x="1192.35" y="-2029.33" font-family="Helvetica,sans-Serif" font-size="14.00">4</text>
</g>
<!-- 3&#45;&#45;4 -->
<g id="edge7" class="edge">
<title>3&#45;&#45;4</title>
<path fill="none" stroke="black" d="M1219.45,-2087.7C1213.7,-2076.52 1206.28,-2062.08 1200.65,-2051.14"/>
</g>
<!-- 35 -->
<g id="node14" class="node">
<title>35</title>
<ellipse fill="lightgrey" stroke="lightgrey" cx="1264.35" cy="-2034" rx="27" ry="18"/>
<text xml:space="preserve" text-anchor="middle" x="1264.35" y="-2029.33" font-family="Helvetica,sans-Serif" font-size="14.00">35</text>
</g>
<!-- 3&#45;&#45;35 -->
<g id="edge8" class="edge">
<title>3&#45;&#45;35</title>
<path fill="none" stroke="black" d="M1237.25,-2087.7C1242.99,-2076.52 1250.42,-2062.08 1256.05,-2051.14"/>
</g>
<!-- 1 -->
<g id="node7" class="node">
<title>1</title>
<ellipse fill="red" stroke="lightgrey" cx="1330.35" cy="-2250" rx="88.04" ry="18"/>
<text xml:space="preserve" text-anchor="middle" x="1330.35" y="-2245.32" font-family="Helvetica,sans-Serif" font-size="14.00">Node 1 (Step 7)</text>
</g>
<!-- 2 -->
<g id="node10" class="node">
<title>2</title>
<ellipse fill="lightgrey" stroke="lightgrey" cx="1294.35" cy="-2178" rx="27" ry="18"/>
<text xml:space="preserve" text-anchor="middle" x="1294.35" y="-2173.32" font-family="Helvetica,sans-Serif" font-size="14.00">2</text>
</g>
<!-- 1&#45;&#45;2 -->
<g id="edge3" class="edge">
<title>1&#45;&#45;2</title>
<path fill="none" stroke="black" d="M1321.45,-2231.7C1315.7,-2220.52 1308.28,-2206.08 1302.65,-2195.14"/>
</g>
<!-- 33 -->
<g id="node11" class="node">
<title>33</title>
<ellipse fill="lightgrey" stroke="lightgrey" cx="1366.35" cy="-2178" rx="27" ry="18"/>
<text xml:space="preserve" text-anchor="middle" x="1366.35" y="-2173.32" font-family="Helvetica,sans-Serif" font-size="14.00">33</text>
</g>
<!-- 1&#45;&#45;33 -->
<g id="edge4" class="edge">
<title>1&#45;&#45;33</title>
<path fill="none" stroke="black" d="M1339.25,-2231.7C1344.99,-2220.52 1352.42,-2206.08 1358.05,-2195.14"/>
</g>
<!-- 32 -->
<g id="node8" class="node">
<title>32</title>
<ellipse fill="red" stroke="lightgrey" cx="1530.35" cy="-2250" rx="94.35" ry="18"/>
<text xml:space="preserve" text-anchor="middle" x="1530.35" y="-2245.32" font-family="Helvetica,sans-Serif" font-size="14.00">Node 32 (Step 8)</text>
</g>
<!-- 0 -->
<g id="node9" class="node">
<title>0</title>
<ellipse fill="lightgrey" stroke="lightgrey" cx="1430.35" cy="-2322" rx="27" ry="18"/>
<text xml:space="preserve" text-anchor="middle" x="1430.35" y="-2317.32" font-family="Helvetica,sans-Serif" font-size="14.00">0</text>
</g>
<!-- 0&#45;&#45;1 -->
<g id="edge1" class="edge">
<title>0&#45;&#45;1</title>
<path fill="none" stroke="black" d="M1412.47,-2308.49C1396.18,-2297.08 1372,-2280.15 1354.09,-2267.62"/>
</g>
<!-- 0&#45;&#45;32 -->
<g id="edge2" class="edge">
<title>0&#45;&#45;32</title>
<path fill="none" stroke="black" d="M1448.23,-2308.49C1464.41,-2297.16 1488.37,-2280.39 1506.24,-2267.88"/>
</g>
<!-- 2&#45;&#45;3 -->
<g id="edge5" class="edge">
<title>2&#45;&#45;3</title>
<path fill="none" stroke="black" d="M1280.35,-2162.15C1269.83,-2151 1255.41,-2135.7 1244.42,-2124.04"/>
</g>
<!-- 34 -->
<g id="node12" class="node">
<title>34</title>
<ellipse fill="lightgrey" stroke="lightgrey" cx="1361.35" cy="-2106" rx="27" ry="18"/>
<text xml:space="preserve" text-anchor="middle" x="1361.35" y="-2101.32" font-family="Helvetica,sans-Serif" font-size="14.00">34</text>
</g>
<!-- 2&#45;&#45;34 -->
<g id="edge6" class="edge">
<title>2&#45;&#45;34</title>
<path fill="none" stroke="black" d="M1308.23,-2162.5C1319.73,-2150.48 1335.99,-2133.49 1347.48,-2121.49"/>
</g>
<!-- 5 -->
<g id="node15" class="node">
<title>5</title>
<ellipse fill="lightgrey" stroke="lightgrey" cx="1156.35" cy="-1962" rx="27" ry="18"/>
<text xml:space="preserve" text-anchor="middle" x="1156.35" y="-1957.33" font-family="Helvetica,sans-Serif" font-size="14.00">5</text>
</g>
<!-- 4&#45;&#45;5 -->
<g id="edge9" class="edge">
<title>4&#45;&#45;5</title>
<path fill="none" stroke="black" d="M1184,-2016.76C1178.18,-2005.46 1170.46,-1990.44 1164.65,-1979.15"/>
</g>
<!-- 36 -->
<g id="node16" class="node">
<title>36</title>
<ellipse fill="lightgrey" stroke="lightgrey" cx="1228.35" cy="-1962" rx="27" ry="18"/>
<text xml:space="preserve" text-anchor="middle" x="1228.35" y="-1957.33" font-family="Helvetica,sans-Serif" font-size="14.00">36</text>
</g>
<!-- 4&#45;&#45;36 -->
<g id="edge10" class="edge">
<title>4&#45;&#45;36</title>
<path fill="none" stroke="black" d="M1200.7,-2016.76C1206.51,-2005.46 1214.24,-1990.44 1220.04,-1979.15"/>
</g>
<!-- 6 -->
<g id="node17" class="node">
<title>6</title>
<ellipse fill="lightgrey" stroke="lightgrey" cx="1120.35" cy="-1890" rx="27" ry="18"/>
<text xml:space="preserve" text-anchor="middle" x="1120.35" y="-1885.33" font-family="Helvetica,sans-Serif" font-size="14.00">6</text>
</g>
<!-- 5&#45;&#45;6 -->
<g id="edge11" class="edge">
<title>5&#45;&#45;6</title>
<path fill="none" stroke="black" d="M1148,-1944.76C1142.18,-1933.46 1134.46,-1918.44 1128.65,-1907.15"/>
</g>
<!-- 37 -->
<g id="node18" class="node">
<title>37</title>
<ellipse fill="lightgrey" stroke="lightgrey" cx="1192.35" cy="-1890" rx="27" ry="18"/>
<text xml:space="preserve" text-anchor="middle" x="1192.35" y="-1885.33" font-family="Helvetica,sans-Serif" font-size="14.00">37</text>
</g>
<!-- 5&#45;&#45;37 -->
<g id="edge12" class="edge">
<title>5&#45;&#45;37</title>
<path fill="none" stroke="black" d="M1164.7,-1944.76C1170.51,-1933.46 1178.24,-1918.44 1184.04,-1907.15"/>
</g>
<!-- 6&#45;&#45;7 -->
<g id="edge13" class="edge">
<title>6&#45;&#45;7</title>
<path fill="none" stroke="black" d="M1106.35,-1874.15C1095.83,-1863 1081.41,-1847.7 1070.42,-1836.04"/>
</g>
<!-- 38 -->
<g id="node19" class="node">
<title>38</title>
<ellipse fill="lightgrey" stroke="lightgrey" cx="1187.35" cy="-1818" rx="27" ry="18"/>
<text xml:space="preserve" text-anchor="middle" x="1187.35" y="-1813.33" font-family="Helvetica,sans-Serif" font-size="14.00">38</text>
</g>
<!-- 6&#45;&#45;38 -->
<g id="edge14" class="edge">
<title>6&#45;&#45;38</title>
<path fill="none" stroke="black" d="M1134.23,-1874.5C1145.73,-1862.48 1161.99,-1845.49 1173.48,-1833.49"/>
</g>
<!-- 9 -->
<g id="node22" class="node">
<title>9</title>
<ellipse fill="lightgrey" stroke="lightgrey" cx="982.35" cy="-1674" rx="27" ry="18"/>
<text xml:space="preserve" text-anchor="middle" x="982.35" y="-1669.33" font-family="Helvetica,sans-Serif" font-size="14.00">9</text>
</g>
<!-- 8&#45;&#45;9 -->
<g id="edge17" class="edge">
<title>8&#45;&#45;9</title>
<path fill="none" stroke="black" d="M1010,-1728.76C1004.18,-1717.46 996.46,-1702.44 990.65,-1691.15"/>
</g>
<!-- 40 -->
<g id="node23" class="node">
<title>40</title>
<ellipse fill="lightgrey" stroke="lightgrey" cx="1054.35" cy="-1674" rx="27" ry="18"/>
<text xml:space="preserve" text-anchor="middle" x="1054.35" y="-1669.33" font-family="Helvetica,sans-Serif" font-size="14.00">40</text>
</g>
<!-- 8&#45;&#45;40 -->
<g id="edge18" class="edge">
<title>8&#45;&#45;40</title>
<path fill="none" stroke="black" d="M1026.7,-1728.76C1032.51,-1717.46 1040.24,-1702.44 1046.04,-1691.15"/>
</g>
<!-- 10 -->
<g id="node24" class="node">
<title>10</title>
<ellipse fill="lightgrey" stroke="lightgrey" cx="946.35" cy="-1602" rx="27" ry="18"/>
<text xml:space="preserve" text-anchor="middle" x="946.35" y="-1597.33" font-family="Helvetica,sans-Serif" font-size="14.00">10</text>
</g>
<!-- 9&#45;&#45;10 -->
<g id="edge19" class="edge">
<title>9&#45;&#45;10</title>
<path fill="none" stroke="black" d="M974,-1656.76C968.18,-1645.46 960.46,-1630.44 954.65,-1619.15"/>
</g>
<!-- 41 -->
<g id="node25" class="node">
<title>41</title>
<ellipse fill="lightgrey" stroke="lightgrey" cx="1018.35" cy="-1602" rx="27" ry="18"/>
<text xml:space="preserve" text-anchor="middle" x="1018.35" y="-1597.33" font-family="Helvetica,sans-Serif" font-size="14.00">41</text>
</g>
<!-- 9&#45;&#45;41 -->
<g id="edge20" class="edge">
<title>9&#45;&#45;41</title>
<path fill="none" stroke="black" d="M990.7,-1656.76C996.51,-1645.46 1004.24,-1630.44 1010.04,-1619.15"/>
</g>
<!-- 10&#45;&#45;11 -->
<g id="edge21" class="edge">
<title>10&#45;&#45;11</title>
<path fill="none" stroke="black" d="M932.05,-1586.5C921,-1575.28 905.68,-1559.74 894.06,-1547.95"/>
</g>
<!-- 42 -->
<g id="node26" class="node">
<title>42</title>
<ellipse fill="lightgrey" stroke="lightgrey" cx="1016.35" cy="-1530" rx="27" ry="18"/>
<text xml:space="preserve" text-anchor="middle" x="1016.35" y="-1525.33" font-family="Helvetica,sans-Serif" font-size="14.00">42</text>
</g>
<!-- 10&#45;&#45;42 -->
<g id="edge22" class="edge">
<title>10&#45;&#45;42</title>
<path fill="none" stroke="black" d="M960.85,-1586.5C972.87,-1574.48 989.85,-1557.49 1001.86,-1545.49"/>
</g>
<!-- 13 -->
<g id="node29" class="node">
<title>13</title>
<ellipse fill="lightgrey" stroke="lightgrey" cx="805.35" cy="-1386" rx="27" ry="18"/>
<text xml:space="preserve" text-anchor="middle" x="805.35" y="-1381.33" font-family="Helvetica,sans-Serif" font-size="14.00">13</text>
</g>
<!-- 12&#45;&#45;13 -->
<g id="edge25" class="edge">
<title>12&#45;&#45;13</title>
<path fill="none" stroke="black" d="M833,-1440.76C827.18,-1429.46 819.46,-1414.44 813.65,-1403.15"/>
</g>
<!-- 44 -->
<g id="node30" class="node">
<title>44</title>
<ellipse fill="lightgrey" stroke="lightgrey" cx="877.35" cy="-1386" rx="27" ry="18"/>
<text xml:space="preserve" text-anchor="middle" x="877.35" y="-1381.33" font-family="Helvetica,sans-Serif" font-size="14.00">44</text>
</g>
<!-- 12&#45;&#45;44 -->
<g id="edge26" class="edge">
<title>12&#45;&#45;44</title>
<path fill="none" stroke="black" d="M849.7,-1440.76C855.51,-1429.46 863.24,-1414.44 869.04,-1403.15"/>
</g>
<!-- 14 -->
<g id="node31" class="node">
<title>14</title>
<ellipse fill="lightgrey" stroke="lightgrey" cx="769.35" cy="-1314" rx="27" ry="18"/>
<text xml:space="preserve" text-anchor="middle" x="769.35" y="-1309.33" font-family="Helvetica,sans-Serif" font-size="14.00">14</text>
</g>
<!-- 13&#45;&#45;14 -->
<g id="edge27" class="edge">
<title>13&#45;&#45;14</title>
<path fill="none" stroke="black" d="M797,-1368.76C791.18,-1357.46 783.46,-1342.44 777.65,-1331.15"/>
</g>
<!-- 45 -->
<g id="node32" class="node">
<title>45</title>
<ellipse fill="lightgrey" stroke="lightgrey" cx="841.35" cy="-1314" rx="27" ry="18"/>
<text xml:space="preserve" text-anchor="middle" x="841.35" y="-1309.33" font-family="Helvetica,sans-Serif" font-size="14.00">45</text>
</g>
<!-- 13&#45;&#45;45 -->
<g id="edge28" class="edge">
<title>13&#45;&#45;45</title>
<path fill="none" stroke="black" d="M813.7,-1368.76C819.51,-1357.46 827.24,-1342.44 833.04,-1331.15"/>
</g>
<!-- 15 -->
<g id="node33" class="node">
<title>15</title>
<ellipse fill="lightgrey" stroke="lightgrey" cx="733.35" cy="-1242" rx="27" ry="18"/>
<text xml:space="preserve" text-anchor="middle" x="733.35" y="-1237.33" font-family="Helvetica,sans-Serif" font-size="14.00">15</text>
</g>
<!-- 14&#45;&#45;15 -->
<g id="edge29" class="edge">
<title>14&#45;&#45;15</title>
<path fill="none" stroke="black" d="M761,-1296.76C755.18,-1285.46 747.46,-1270.44 741.65,-1259.15"/>
</g>
<!-- 46 -->
<g id="node34" class="node">
<title>46</title>
<ellipse fill="lightgrey" stroke="lightgrey" cx="805.35" cy="-1242" rx="27" ry="18"/>
<text xml:space="preserve" text-anchor="middle" x="805.35" y="-1237.33" font-family="Helvetica,sans-Serif" font-size="14.00">46</text>
</g>
<!-- 14&#45;&#45;46 -->
<g id="edge30" class="edge">
<title>14&#45;&#45;46</title>
<path fill="none" stroke="black" d="M777.7,-1296.76C783.51,-1285.46 791.24,-1270.44 797.04,-1259.15"/>
</g>
<!-- 16 -->
<g id="node35" class="node">
<title>16</title>
<ellipse fill="lightgrey" stroke="lightgrey" cx="697.35" cy="-1170" rx="27" ry="18"/>
<text xml:space="preserve" text-anchor="middle" x="697.35" y="-1165.33" font-family="Helvetica,sans-Serif" font-size="14.00">16</text>
</g>
<!-- 15&#45;&#45;16 -->
<g id="edge31" class="edge">
<title>15&#45;&#45;16</title>
<path fill="none" stroke="black" d="M725,-1224.76C719.18,-1213.46 711.46,-1198.44 705.65,-1187.15"/>
</g>
<!-- 47 -->
<g id="node36" class="node">
<title>47</title>
<ellipse fill="lightgrey" stroke="lightgrey" cx="769.35" cy="-1170" rx="27" ry="18"/>
<text xml:space="preserve" text-anchor="middle" x="769.35" y="-1165.33" font-family="Helvetica,sans-Serif" font-size="14.00">47</text>
</g>
<!-- 15&#45;&#45;47 -->
<g id="edge32" class="edge">
<title>15&#45;&#45;47</title>
<path fill="none" stroke="black" d="M741.7,-1224.76C747.51,-1213.46 755.24,-1198.44 761.04,-1187.15"/>
</g>
<!-- 16&#45;&#45;17 -->
<g id="edge33" class="edge">
<title>16&#45;&#45;17</title>
<path fill="none" stroke="black" d="M683.05,-1154.5C672,-1143.28 656.68,-1127.74 645.06,-1115.95"/>
</g>
<!-- 48 -->
<g id="node37" class="node">
<title>48</title>
<ellipse fill="lightgrey" stroke="lightgrey" cx="767.35" cy="-1098" rx="27" ry="18"/>
<text xml:space="preserve" text-anchor="middle" x="767.35" y="-1093.33" font-family="Helvetica,sans-Serif" font-size="14.00">48</text>
</g>
<!-- 16&#45;&#45;48 -->
<g id="edge34" class="edge">
<title>16&#45;&#45;48</title>
<path fill="none" stroke="black" d="M711.85,-1154.5C723.87,-1142.48 740.85,-1125.49 752.86,-1113.49"/>
</g>
<!-- 19 -->
<g id="node40" class="node">
<title>19</title>
<ellipse fill="lightgrey" stroke="lightgrey" cx="556.35" cy="-954" rx="27" ry="18"/>
<text xml:space="preserve" text-anchor="middle" x="556.35" y="-949.33" font-family="Helvetica,sans-Serif" font-size="14.00">19</text>
</g>
<!-- 18&#45;&#45;19 -->
<g id="edge37" class="edge">
<title>18&#45;&#45;19</title>
<path fill="none" stroke="black" d="M584,-1008.76C578.18,-997.46 570.46,-982.44 564.65,-971.15"/>
</g>
<!-- 50 -->
<g id="node41" class="node">
<title>50</title>
<ellipse fill="lightgrey" stroke="lightgrey" cx="628.35" cy="-954" rx="27" ry="18"/>
<text xml:space="preserve" text-anchor="middle" x="628.35" y="-949.33" font-family="Helvetica,sans-Serif" font-size="14.00">50</text>
</g>
<!-- 18&#45;&#45;50 -->
<g id="edge38" class="edge">
<title>18&#45;&#45;50</title>
<path fill="none" stroke="black" d="M600.7,-1008.76C606.51,-997.46 614.24,-982.44 620.04,-971.15"/>
</g>
<!-- 20 -->
<g id="node42" class="node">
<title>20</title>
<ellipse fill="lightgrey" stroke="lightgrey" cx="520.35" cy="-882" rx="27" ry="18"/>
<text xml:space="preserve" text-anchor="middle" x="520.35" y="-877.33" font-family="Helvetica,sans-Serif" font-size="14.00">20</text>
</g>
<!-- 19&#45;&#45;20 -->
<g id="edge39" class="edge">
<title>19&#45;&#45;20</title>
<path fill="none" stroke="black" d="M548,-936.76C542.18,-925.46 534.46,-910.44 528.65,-899.15"/>
</g>
<!-- 51 -->
<g id="node43" class="node">
<title>51</title>
<ellipse fill="lightgrey" stroke="lightgrey" cx="592.35" cy="-882" rx="27" ry="18"/>
<text xml:space="preserve" text-anchor="middle" x="592.35" y="-877.33" font-family="Helvetica,sans-Serif" font-size="14.00">51</text>
</g>
<!-- 19&#45;&#45;51 -->
<g id="edge40" class="edge">
<title>19&#45;&#45;51</title>
<path fill="none" stroke="black" d="M564.7,-936.76C570.51,-925.46 578.24,-910.44 584.04,-899.15"/>
</g>
<!-- 21 -->
<g id="node44" class="node">
<title>21</title>
<ellipse fill="lightgrey" stroke="lightgrey" cx="484.35" cy="-810" rx="27" ry="18"/>
<text xml:space="preserve" text-anchor="middle" x="484.35" y="-805.33" font-family="Helvetica,sans-Serif" font-size="14.00">21</text>
</g>
<!-- 20&#45;&#45;21 -->
<g id="edge41" class="edge">
<title>20&#45;&#45;21</title>
<path fill="none" stroke="black" d="M512,-864.76C506.18,-853.46 498.46,-838.44 492.65,-827.15"/>
</g>
<!-- 52 -->
<g id="node45" class="node">
<title>52</title>
<ellipse fill="lightgrey" stroke="lightgrey" cx="556.35" cy="-810" rx="27" ry="18"/>
<text xml:space="preserve" text-anchor="middle" x="556.35" y="-805.33" font-family="Helvetica,sans-Serif" font-size="14.00">52</text>
</g>
<!-- 20&#45;&#45;52 -->
<g id="edge42" class="edge">
<title>20&#45;&#45;52</title>
<path fill="none" stroke="black" d="M528.7,-864.76C534.51,-853.46 542.24,-838.44 548.04,-827.15"/>
</g>
<!-- 22 -->
<g id="node46" class="node">
<title>22</title>
<ellipse fill="lightgrey" stroke="lightgrey" cx="448.35" cy="-738" rx="27" ry="18"/>
<text xml:space="preserve" text-anchor="middle" x="448.35" y="-733.33" font-family="Helvetica,sans-Serif" font-size="14.00">22</text>
</g>
<!-- 21&#45;&#45;22 -->
<g id="edge43" class="edge">
<title>21&#45;&#45;22</title>
<path fill="none" stroke="black" d="M476,-792.76C470.18,-781.46 462.46,-766.44 456.65,-755.15"/>
</g>
<!-- 53 -->
<g id="node47" class="node">
<title>53</title>
<ellipse fill="lightgrey" stroke="lightgrey" cx="520.35" cy="-738" rx="27" ry="18"/>
<text xml:space="preserve" text-anchor="middle" x="520.35" y="-733.33" font-family="Helvetica,sans-Serif" font-size="14.00">53</text>
</g>
<!-- 21&#45;&#45;53 -->
<g id="edge44" class="edge">
<title>21&#45;&#45;53</title>
<path fill="none" stroke="black" d="M492.7,-792.76C498.51,-781.46 506.24,-766.44 512.04,-755.15"/>
</g>
<!-- 23 -->
<g id="node48" class="node">
<title>23</title>
<ellipse fill="lightgrey" stroke="lightgrey" cx="412.35" cy="-666" rx="27" ry="18"/>
<text xml:space="preserve" text-anchor="middle" x="412.35" y="-661.33" font-family="Helvetica,sans-Serif" font-size="14.00">23</text>
</g>
<!-- 22&#45;&#45;23 -->
<g id="edge45" class="edge">
<title>22&#45;&#45;23</title>
<path fill="none" stroke="black" d="M440,-720.76C434.18,-709.46 426.46,-694.44 420.65,-683.15"/>
</g>
<!-- 54 -->
<g id="node49" class="node">
<title>54</title>
<ellipse fill="lightgrey" stroke="lightgrey" cx="484.35" cy="-666" rx="27" ry="18"/>
<text xml:space="preserve" text-anchor="middle" x="484.35" y="-661.33" font-family="Helvetica,sans-Serif" font-size="14.00">54</text>
</g>
<!-- 22&#45;&#45;54 -->
<g id="edge46" class="edge">
<title>22&#45;&#45;54</title>
<path fill="none" stroke="black" d="M456.7,-720.76C462.51,-709.46 470.24,-694.44 476.04,-683.15"/>
</g>
<!-- 23&#45;&#45;24 -->
<g id="edge47" class="edge">
<title>23&#45;&#45;24</title>
<path fill="none" stroke="black" d="M398.05,-650.5C387,-639.28 371.68,-623.74 360.06,-611.95"/>
</g>
<!-- 55 -->
<g id="node50" class="node">
<title>55</title>
<ellipse fill="lightgrey" stroke="lightgrey" cx="482.35" cy="-594" rx="27" ry="18"/>
<text xml:space="preserve" text-anchor="middle" x="482.35" y="-589.33" font-family="Helvetica,sans-Serif" font-size="14.00">55</text>
</g>
<!-- 23&#45;&#45;55 -->
<g id="edge48" class="edge">
<title>23&#45;&#45;55</title>
<path fill="none" stroke="black" d="M426.85,-650.5C438.87,-638.48 455.85,-621.49 467.86,-609.49"/>
</g>
<!-- 26 -->
<g id="node53" class="node">
<title>26</title>
<ellipse fill="lightgrey" stroke="lightgrey" cx="271.35" cy="-450" rx="27" ry="18"/>
<text xml:space="preserve" text-anchor="middle" x="271.35" y="-445.32" font-family="Helvetica,sans-Serif" font-size="14.00">26</text>
</g>
<!-- 25&#45;&#45;26 -->
<g id="edge51" class="edge">
<title>25&#45;&#45;26</title>
<path fill="none" stroke="black" d="M299,-504.76C293.18,-493.46 285.46,-478.44 279.65,-467.15"/>
</g>
<!-- 57 -->
<g id="node54" class="node">
<title>57</title>
<ellipse fill="lightgrey" stroke="lightgrey" cx="343.35" cy="-450" rx="27" ry="18"/>
<text xml:space="preserve" text-anchor="middle" x="343.35" y="-445.32" font-family="Helvetica,sans-Serif" font-size="14.00">57</text>
</g>
<!-- 25&#45;&#45;57 -->
<g id="edge52" class="edge">
<title>25&#45;&#45;57</title>
<path fill="none" stroke="black" d="M315.7,-504.76C321.51,-493.46 329.24,-478.44 335.04,-467.15"/>
</g>
<!-- 27 -->
<g id="node55" class="node">
<title>27</title>
<ellipse fill="lightgrey" stroke="lightgrey" cx="235.35" cy="-378" rx="27" ry="18"/>
<text xml:space="preserve" text-anchor="middle" x="235.35" y="-373.32" font-family="Helvetica,sans-Serif" font-size="14.00">27</text>
</g>
<!-- 26&#45;&#45;27 -->
<g id="edge53" class="edge">
<title>26&#45;&#45;27</title>
<path fill="none" stroke="black" d="M263,-432.76C257.18,-421.46 249.46,-406.44 243.65,-395.15"/>
</g>
<!-- 58 -->
<g id="node56" class="node">
<title>58</title>
<ellipse fill="lightgrey" stroke="lightgrey" cx="307.35" cy="-378" rx="27" ry="18"/>
<text xml:space="preserve" text-anchor="middle" x="307.35" y="-373.32" font-family="Helvetica,sans-Serif" font-size="14.00">58</text>
</g>
<!-- 26&#45;&#45;58 -->
<g id="edge54" class="edge">
<title>26&#45;&#45;58</title>
<path fill="none" stroke="black" d="M279.7,-432.76C285.51,-421.46 293.24,-406.44 299.04,-395.15"/>
</g>
<!-- 28 -->
<g id="node57" class="node">
<title>28</title>
<ellipse fill="lightgrey" stroke="lightgrey" cx="199.35" cy="-306" rx="27" ry="18"/>
<text xml:space="preserve" text-anchor="middle" x="199.35" y="-301.32" font-family="Helvetica,sans-Serif" font-size="14.00">28</text>
</g>
<!-- 27&#45;&#45;28 -->
<g id="edge55" class="edge">
<title>27&#45;&#45;28</title>
<path fill="none" stroke="black" d="M227,-360.76C221.18,-349.46 213.46,-334.44 207.65,-323.15"/>
</g>
<!-- 59 -->
<g id="node58" class="node">
<title>59</title>
<ellipse fill="lightgrey" stroke="lightgrey" cx="271.35" cy="-306" rx="27" ry="18"/>
<text xml:space="preserve" text-anchor="middle" x="271.35" y="-301.32" font-family="Helvetica,sans-Serif" font-size="14.00">59</text>
</g>
<!-- 27&#45;&#45;59 -->
<g id="edge56" class="edge">
<title>27&#45;&#45;59</title>
<path fill="none" stroke="black" d="M243.7,-360.76C249.51,-349.46 257.24,-334.44 263.04,-323.15"/>
</g>
<!-- 29 -->
<g id="node59" class="node">
<title>29</title>
<ellipse fill="lightgrey" stroke="lightgrey" cx="163.35" cy="-234" rx="27" ry="18"/>
<text xml:space="preserve" text-anchor="middle" x="163.35" y="-229.32" font-family="Helvetica,sans-Serif" font-size="14.00">29</text>
</g>
<!-- 28&#45;&#45;29 -->
<g id="edge57" class="edge">
<title>28&#45;&#45;29</title>
<path fill="none" stroke="black" d="M191,-288.76C185.18,-277.46 177.46,-262.44 171.65,-251.15"/>
</g>
<!-- 60 -->
<g id="node60" class="node">
<title>60</title>
<ellipse fill="lightgrey" stroke="lightgrey" cx="235.35" cy="-234" rx="27" ry="18"/>
<text xml:space="preserve" text-anchor="middle" x="235.35" y="-229.32" font-family="Helvetica,sans-Serif" font-size="14.00">60</text>
</g>
<!-- 28&#45;&#45;60 -->
<g id="edge58" class="edge">
<title>28&#45;&#45;60</title>
<path fill="none" stroke="black" d="M207.7,-288.76C213.51,-277.46 221.24,-262.44 227.04,-251.15"/>
</g>
<!-- 29&#45;&#45;30 -->
<g id="edge59" class="edge">
<title>29&#45;&#45;30</title>
<path fill="none" stroke="black" d="M149.05,-218.5C138,-207.28 122.68,-191.74 111.06,-179.95"/>
</g>
<!-- 61 -->
<g id="node61" class="node">
<title>61</title>
<ellipse fill="lightgrey" stroke="lightgrey" cx="233.35" cy="-162" rx="27" ry="18"/>
<text xml:space="preserve" text-anchor="middle" x="233.35" y="-157.32" font-family="Helvetica,sans-Serif" font-size="14.00">61</text>
</g>
<!-- 29&#45;&#45;61 -->
<g id="edge60" class="edge">
<title>29&#45;&#45;61</title>
<path fill="none" stroke="black" d="M177.85,-218.5C189.87,-206.48 206.85,-189.49 218.86,-177.49"/>
</g>
<!-- 63 -->
<g id="node64" class="node">
<title>63</title>
<ellipse fill="lightgrey" stroke="lightgrey" cx="58.35" cy="-18" rx="27" ry="18"/>
<text xml:space="preserve" text-anchor="middle" x="58.35" y="-13.32" font-family="Helvetica,sans-Serif" font-size="14.00">63</text>
</g>
<!-- 31&#45;&#45;63 -->
<g id="edge63" class="edge">
<title>31&#45;&#45;63</title>
<path fill="none" stroke="black" d="M58.35,-71.7C58.35,-60.85 58.35,-46.92 58.35,-36.1"/>
</g>
</g>
</svg>
